<svg xmlns="http://www.w3.org/2000/svg" width="1660" height="820" viewBox="0 0 1660 820" role="img" aria-label="Field_delay_bundle A4 Long [sdram] Algorithm Detail">
<defs>
<marker id="audioArrow" markerWidth="10" markerHeight="10" refX="8" refY="3" orient="auto" markerUnits="strokeWidth"><path d="M0,0 L0,6 L9,3 z" fill="#008fd3"/></marker>
<marker id="controlArrow" markerWidth="10" markerHeight="10" refX="8" refY="3" orient="auto" markerUnits="strokeWidth"><path d="M0,0 L0,6 L9,3 z" fill="#18a84b"/></marker>
<marker id="modArrow" markerWidth="10" markerHeight="10" refX="8" refY="3" orient="auto" markerUnits="strokeWidth"><path d="M0,0 L0,6 L9,3 z" fill="#f07a20"/></marker>
<marker id="feedbackArrow" markerWidth="10" markerHeight="10" refX="8" refY="3" orient="auto" markerUnits="strokeWidth"><path d="M0,0 L0,6 L9,3 z" fill="#6f7f89"/></marker>
<pattern id="grid" width="20" height="20" patternUnits="userSpaceOnUse"><rect width="20" height="20" fill="#ffffff"/><path d="M20 0H0V20" fill="none" stroke="#edf3f7" stroke-width="1"/></pattern>
</defs>
<rect x="0" y="0" width="1660" height="820" fill="url(#grid)" />
<g class="frame"><rect x="35" y="20" width="1590" height="130" rx="8" fill="#eefcf3" fill-opacity="0.55" stroke="#18a84b" stroke-width="3"/><rect x="37" y="22" width="1586" height="30" rx="6" fill="#ffffff" fill-opacity="0.78" stroke="none"/><text x="49" y="41" font-size="13" font-weight="700" fill="#18a84b">Long delay controls</text></g>
<g class="frame"><rect x="35" y="180" width="1590" height="455" rx="8" fill="#fff5f5" fill-opacity="0.55" stroke="#e33b3b" stroke-width="3"/><rect x="37" y="182" width="1586" height="30" rx="6" fill="#ffffff" fill-opacity="0.78" stroke="none"/><text x="49" y="201" font-size="13" font-weight="700" fill="#e33b3b">Long external-buffer delay algorithm</text></g>
<g class="frame"><rect x="55" y="665" width="1570" height="120" rx="8" fill="#f8fbfd" fill-opacity="0.55" stroke="#8aa0ad" stroke-width="3"/><rect x="57" y="667" width="1566" height="30" rx="6" fill="#ffffff" fill-opacity="0.78" stroke="none"/><text x="69" y="686" font-size="13" font-weight="700" fill="#8aa0ad">Shared SDRAM and output integration</text></g>
<g class="link audio"><path d="M210 395 L255 395" fill="none" stroke="#008fd3" stroke-width="5" stroke-linecap="round" stroke-linejoin="round" marker-end="url(#audioArrow)"/></g>
<g class="link audio"><path d="M340 445 L340 610 L1140 610 L1140 555" fill="none" stroke="#008fd3" stroke-width="5" stroke-linecap="round" stroke-linejoin="round" marker-end="url(#audioArrow)"/></g>
<g class="link control"><path d="M580 360 L580 455" fill="none" stroke="#18a84b" stroke-width="3" stroke-linecap="round" stroke-linejoin="round" marker-end="url(#controlArrow)"/></g>
<g class="link control"><path d="M675 360 L675 390 L862 390 L862 455" fill="none" stroke="#18a84b" stroke-width="3" stroke-linecap="round" stroke-linejoin="round" marker-end="url(#controlArrow)"/></g>
<g class="link mod"><path d="M725 310 L705 310 L705 455" fill="none" stroke="#f07a20" stroke-width="3" stroke-linecap="round" stroke-linejoin="round" stroke-dasharray="9 7" marker-end="url(#modArrow)"/></g>
<g class="link audio"><path d="M705 508 L735 508 L735 405 L1035 405 L1035 490" fill="none" stroke="#008fd3" stroke-width="5" stroke-linecap="round" stroke-linejoin="round" marker-end="url(#audioArrow)"/></g>
<g class="link audio"><path d="M965 532 L1035 532" fill="none" stroke="#008fd3" stroke-width="5" stroke-linecap="round" stroke-linejoin="round" marker-end="url(#audioArrow)"/></g>
<g class="link feedback"><path d="M1140 440 L1140 400 L602 400 L602 455" fill="none" stroke="#6f7f89" stroke-width="3" stroke-linecap="round" stroke-linejoin="round" stroke-dasharray="6 7" marker-end="url(#feedbackArrow)"/></g>
<g class="link feedback"><path d="M1035 470 L862 470 L862 455" fill="none" stroke="#6f7f89" stroke-width="3" stroke-linecap="round" stroke-linejoin="round" stroke-dasharray="6 7" marker-end="url(#feedbackArrow)"/></g>
<g class="link audio"><path d="M705 485 L735 485 L735 405 L1300 405 L1300 485 L1320 485" fill="none" stroke="#008fd3" stroke-width="5" stroke-linecap="round" stroke-linejoin="round" marker-end="url(#audioArrow)"/></g>
<g class="link audio"><path d="M965 545 L1000 545 L1000 610 L1300 610 L1300 525 L1320 525" fill="none" stroke="#008fd3" stroke-width="5" stroke-linecap="round" stroke-linejoin="round" marker-end="url(#audioArrow)"/></g>
<g class="link audio"><path d="M1408 555 L1408 650 L1215 650 L1215 705" fill="none" stroke="#008fd3" stroke-width="5" stroke-linecap="round" stroke-linejoin="round" marker-end="url(#audioArrow)"/></g>
<g class="link audio"><path d="M1320 740 L1390 740" fill="none" stroke="#008fd3" stroke-width="5" stroke-linecap="round" stroke-linejoin="round" marker-end="url(#audioArrow)"/></g>
<g class="link feedback"><path d="M255 705 L255 660 L602 660 L602 560" fill="none" stroke="#6f7f89" stroke-width="3" stroke-linecap="round" stroke-linejoin="round" stroke-dasharray="6 7" marker-end="url(#feedbackArrow)"/></g>
<g class="link control"><path d="M180 135 L180 220 L580 220 L580 255" fill="none" stroke="#18a84b" stroke-width="3" stroke-linecap="round" stroke-linejoin="round" marker-end="url(#controlArrow)"/></g>
<g class="link control"><path d="M430 135 L430 205 L820 205 L820 255" fill="none" stroke="#18a84b" stroke-width="3" stroke-linecap="round" stroke-linejoin="round" marker-end="url(#controlArrow)"/></g>
<g class="link control"><path d="M680 135 L680 430 L862 430 L862 455" fill="none" stroke="#18a84b" stroke-width="3" stroke-linecap="round" stroke-linejoin="round" marker-end="url(#controlArrow)"/></g>
<g class="link control"><path d="M930 135 L930 405 L1140 405 L1140 440" fill="none" stroke="#18a84b" stroke-width="3" stroke-linecap="round" stroke-linejoin="round" marker-end="url(#controlArrow)"/></g>
<g class="link control"><path d="M1180 135 L1180 165 L340 165 L340 335" fill="none" stroke="#18a84b" stroke-width="3" stroke-linecap="round" stroke-linejoin="round" marker-end="url(#controlArrow)"/></g>
<g class="block control">
<rect x="70" y="65" width="220" height="70" rx="8" fill="#f2fff6" stroke="#18a84b" stroke-width="2"/>
<text x="83" y="84" font-size="15" fill="#0c7a35" font-weight="700">Long time controls</text>
<text x="83" y="104" font-size="13" fill="#526777">K2 Long Time</text>
<text x="83" y="119" font-size="13" fill="#526777">K1 SW2 Range</text>
</g>
<g class="block control">
<rect x="320" y="65" width="220" height="70" rx="8" fill="#f2fff6" stroke="#18a84b" stroke-width="2"/>
<text x="333" y="84" font-size="15" fill="#0c7a35" font-weight="700">Mod and width controls</text>
<text x="333" y="104" font-size="13" fill="#526777">K6 Mod</text>
<text x="333" y="119" font-size="13" fill="#526777">K2 SW1 Width</text>
</g>
<g class="block control">
<rect x="570" y="65" width="220" height="70" rx="8" fill="#f2fff6" stroke="#18a84b" stroke-width="2"/>
<text x="583" y="84" font-size="15" fill="#0c7a35" font-weight="700">Warp and smear controls</text>
<text x="583" y="104" font-size="13" fill="#526777">K6 SW2 Warp</text>
<text x="583" y="119" font-size="13" fill="#526777">K5 SW2 Smear</text>
</g>
<g class="block control">
<rect x="820" y="65" width="220" height="70" rx="8" fill="#f2fff6" stroke="#18a84b" stroke-width="2"/>
<text x="833" y="84" font-size="15" fill="#0c7a35" font-weight="700">Feedback and cross controls</text>
<text x="833" y="104" font-size="13" fill="#526777">K3 Feedback</text>
<text x="833" y="119" font-size="13" fill="#526777">K5 Grit/Cross</text>
</g>
<g class="block control">
<rect x="1070" y="65" width="220" height="70" rx="8" fill="#f2fff6" stroke="#18a84b" stroke-width="2"/>
<text x="1083" y="84" font-size="15" fill="#0c7a35" font-weight="700">Gain controls</text>
<text x="1083" y="104" font-size="13" fill="#526777">K7 Input drive</text>
<text x="1083" y="119" font-size="13" fill="#526777">K8 Output after bundle mix</text>
</g>
<g class="block pitch">
<rect x="65" y="350" width="145" height="90" rx="8" fill="#f3f7fa" stroke="#34495e" stroke-width="2"/>
<text x="78" y="369" font-size="15" fill="#172026" font-weight="700">Algorithm input</text>
<text x="78" y="389" font-size="13" fill="#526777">audio in +</text>
<text x="78" y="404" font-size="13" fill="#526777">internal synth</text>
<text x="78" y="419" font-size="13" fill="#526777">left/right samples</text>
</g>
<g class="block mixer">
<rect x="255" y="335" width="170" height="110" rx="8" fill="#f7fbff" stroke="#008fd3" stroke-width="2"/>
<text x="268" y="354" font-size="15" fill="#008fd3" font-weight="700">Driven stereo input</text>
<text x="268" y="374" font-size="13" fill="#526777">input L/R</text>
<text x="268" y="389" font-size="13" fill="#526777">drive in write path</text>
</g>
<g class="block processor">
<rect x="485" y="255" width="190" height="105" rx="8" fill="#ffffff" stroke="#0f766e" stroke-width="2"/>
<text x="498" y="274" font-size="15" fill="#14242c" font-weight="700">Long base-time mapper</text>
<text x="498" y="294" font-size="13" fill="#526777">time ms to samples</text>
<text x="498" y="309" font-size="13" fill="#526777">clamped to storage size</text>
</g>
<g class="block mod">
<rect x="725" y="255" width="190" height="110" rx="8" fill="#fff6ec" stroke="#f07a20" stroke-width="2"/>
<text x="738" y="274" font-size="15" fill="#c85809" font-weight="700">Slow LFO modulation</text>
<text x="738" y="294" font-size="13" fill="#526777">lfoPhase_</text>
<text x="738" y="309" font-size="13" fill="#526777">small proportional offset</text>
<path d="M753 337 C775 317, 801 317, 823 337 S873 357, 895 337 S943 317, 965 337" fill="none" stroke="#f07a20" stroke-width="3"/>
</g>
<g class="block processor">
<rect x="500" y="455" width="205" height="105" rx="8" fill="#ffffff" stroke="#0f766e" stroke-width="2"/>
<text x="513" y="474" font-size="15" fill="#14242c" font-weight="700">Primary fractional reads</text>
<text x="513" y="494" font-size="13" fill="#526777">readL/readR</text>
<text x="513" y="509" font-size="13" fill="#526777">smooth L/R delay</text>
</g>
<g class="block processor">
<rect x="760" y="455" width="205" height="105" rx="8" fill="#ffffff" stroke="#0f766e" stroke-width="2"/>
<text x="773" y="474" font-size="15" fill="#14242c" font-weight="700">Secondary warp taps</text>
<text x="773" y="494" font-size="13" fill="#526777">tapL/tapR</text>
<text x="773" y="509" font-size="13" fill="#526777">warped base proportions</text>
</g>
<g class="block processor">
<rect x="1035" y="440" width="210" height="115" rx="8" fill="#ffffff" stroke="#0f766e" stroke-width="2"/>
<text x="1048" y="459" font-size="15" fill="#14242c" font-weight="700">Ping-pong cross feedback</text>
<text x="1048" y="479" font-size="13" fill="#526777">cross mixes L/R</text>
<text x="1048" y="494" font-size="13" fill="#526777">writes four lines</text>
</g>
<g class="block mixer">
<rect x="1320" y="455" width="175" height="100" rx="8" fill="#f7fbff" stroke="#008fd3" stroke-width="2"/>
<text x="1333" y="474" font-size="15" fill="#008fd3" font-weight="700">Smear blend</text>
<text x="1333" y="494" font-size="13" fill="#526777">primary vs warp taps</text>
<text x="1333" y="509" font-size="13" fill="#526777">wet L/R</text>
</g>
<g class="block note">
<rect x="95" y="705" width="320" height="70" rx="8" fill="#f8fbfd" stroke="#8aa0ad" stroke-width="2"/>
<text x="108" y="724" font-size="15" fill="#172026" font-weight="700">External SDRAM storage</text>
<text x="108" y="744" font-size="13" fill="#526777">4 lines x 384000 samples</text>
<text x="108" y="759" font-size="13" fill="#526777">shared delay buffers</text>
</g>
<g class="block output">
<rect x="1110" y="705" width="210" height="70" rx="8" fill="#fff5f5" stroke="#e33b3b" stroke-width="2"/>
<text x="1123" y="724" font-size="15" fill="#d82121" font-weight="700">Bundle dry/wet and gain</text>
<text x="1123" y="744" font-size="13" fill="#526777">mix, bypass, wet-only,</text>
<text x="1123" y="759" font-size="13" fill="#526777">output dB</text>
</g>
<g class="block output">
<rect x="1390" y="705" width="170" height="70" rx="8" fill="#fff5f5" stroke="#e33b3b" stroke-width="2"/>
<text x="1403" y="724" font-size="15" fill="#d82121" font-weight="700">Audio Out L/R</text>
<text x="1403" y="744" font-size="13" fill="#526777">returned to Field DAC</text>
</g>
<g class="legend">
<line x1="28" y1="798" x2="70" y2="798" stroke="#008fd3" stroke-width="4"/>
<text x="78" y="802" font-size="12" fill="#526777">audio</text>
<line x1="178" y1="798" x2="220" y2="798" stroke="#18a84b" stroke-width="4"/>
<text x="228" y="802" font-size="12" fill="#526777">control</text>
<line x1="328" y1="798" x2="370" y2="798" stroke="#f07a20" stroke-width="4" stroke-dasharray="7 5"/>
<text x="378" y="802" font-size="12" fill="#526777">modulation</text>
<line x1="478" y1="798" x2="520" y2="798" stroke="#6f7f89" stroke-width="4" stroke-dasharray="7 5"/>
<text x="528" y="802" font-size="12" fill="#526777">UI feedback</text>
</g>
</svg>