<svg xmlns="http://www.w3.org/2000/svg" viewBox="0 0 512 512">
  <defs>
    <linearGradient id="bg" x1="0" y1="0" x2="1" y2="1">
      <stop offset="0%" stop-color="#63707d"/>
      <stop offset="100%" stop-color="#404752"/>
    </linearGradient>
  </defs>
  <rect x="24" y="24" width="464" height="464" rx="88" fill="url(#bg)"/>
  <rect x="76" y="100" width="360" height="312" rx="36" fill="none" stroke="#f2f0ea" stroke-width="10" opacity="0.75"/>
  <g transform="translate(256 190)">
    <ellipse cx="0" cy="-74" rx="28" ry="40" fill="#f2f0ea"/>
    <ellipse cx="52" cy="-52" rx="28" ry="40" transform="rotate(45 52 -52)" fill="#f2f0ea"/>
    <ellipse cx="74" cy="0" rx="28" ry="40" transform="rotate(90 74 0)" fill="#f2f0ea"/>
    <ellipse cx="52" cy="52" rx="28" ry="40" transform="rotate(135 52 52)" fill="#f2f0ea"/>
    <ellipse cx="0" cy="74" rx="28" ry="40" fill="#f2f0ea"/>
    <ellipse cx="-52" cy="52" rx="28" ry="40" transform="rotate(-135 -52 52)" fill="#f2f0ea"/>
    <ellipse cx="-74" cy="0" rx="28" ry="40" transform="rotate(90 -74 0)" fill="#f2f0ea"/>
    <ellipse cx="-52" cy="-52" rx="28" ry="40" transform="rotate(-45 -52 -52)" fill="#f2f0ea"/>
    <circle cx="0" cy="0" r="42" fill="#eb9a38"/>
  </g>
  <g transform="translate(256 352)">
    <rect x="-126" y="-44" width="252" height="88" rx="20" fill="#1c2026" stroke="#f2f0ea" stroke-width="6" opacity="0.95"/>
    <circle cx="-86" cy="0" r="14" fill="#53c1c9"/>
    <circle cx="-28" cy="0" r="14" fill="#68b6ff"/>
    <rect x="22" y="-18" width="54" height="36" rx="8" fill="#eb9a38"/>
    <circle cx="100" cy="0" r="12" fill="#f2f0ea"/>
  </g>
</svg>
